<?xml version="1.0" encoding="UTF-8"?><svg id="color_light" xmlns="http://www.w3.org/2000/svg" viewBox="0 0 320 64"><defs><style>.cls-1{fill:#70e266;}</style></defs><path d="m19.69,41.52h15.76v6.12H11.98V12.83h7.71v28.69Z"/><path d="m37.39,30.23c0-4.92,1.79-9.15,5.32-12.68,3.53-3.53,7.76-5.27,12.78-5.27s9.25,1.74,12.78,5.27c3.53,3.53,5.27,7.76,5.27,12.68s-1.74,9.15-5.27,12.68-7.81,5.27-12.78,5.27-9.25-1.74-12.78-5.27c-3.53-3.53-5.32-7.76-5.32-12.68Zm7.61,0c0,3.13,1.04,5.77,3.08,7.81,2.04,2.04,4.48,3.08,7.41,3.08s5.37-1.04,7.41-3.08,3.03-4.67,3.03-7.81-1-5.77-3.03-7.81c-2.04-2.04-4.48-3.08-7.41-3.08s-5.37,1.04-7.41,3.08c-2.04,2.04-3.08,4.67-3.08,7.81Z"/><path d="m99.29,12.83h7.71v21.63c0,4.33-1.39,7.66-4.13,10.09s-6.17,3.63-10.29,3.63-7.51-1.19-10.24-3.63c-2.73-2.44-4.13-5.77-4.13-10.09V12.83h7.71v21.63c0,4.62,2.88,7.26,6.66,7.26s6.71-2.69,6.71-7.26V12.83Z"/><path d="m121.57,41.52h15.76v6.12h-23.47V12.83h7.71v28.69Z"/><path d="m164.58,47.64h-23.12V12.83h23.12v6.12h-15.42v8.55h13.38v6.12h-13.38v7.91h15.42v6.12Z"/><path d="m189.19,34.71c1.04,4.23,2.59,6.66,5.77,6.66,1.29,0,2.49-.5,3.53-1.49l2.74,5.32c-2.64,2.04-4.43,2.98-7.76,2.98-4.92,0-7.91-3.33-9.45-6.81-1.14-2.54-1.54-4.38-1.74-6.12h-4.62v12.38h-7.66V12.83h15.47c3.43,0,6.17,1.09,8.16,3.28,1.94,2.24,2.93,4.92,2.93,8.16,0,4.97-2.79,9-7.36,10.44Zm-11.54-5.62h6.81c2.74,0,4.38-1.94,4.38-4.87s-1.64-4.92-4.38-4.92h-6.81v9.8Z"/><path d="m207.09,17.5c3.43-3.48,8.01-5.22,13.63-5.22,4.38,0,8.55,1.49,12.53,4.48l-3.83,5.72c-2.88-2.14-5.72-3.18-8.45-3.13-8.45,0-11.34,5.97-11.34,10.99,0,3.13.99,5.72,3.03,7.76,1.99,2.04,4.58,3.03,7.71,3.03,2.54,0,4.67-.45,6.42-1.29v-4.97h-8.8v-6.17h16.01v14.17c-3.98,3.53-8.5,5.32-13.58,5.32s-9.65-1.74-13.18-5.27c-3.53-3.48-5.32-7.71-5.32-12.68s1.74-9.25,5.17-12.73Z"/><path d="m260.29,12.83h7.71v21.63c0,4.33-1.39,7.66-4.13,10.09-2.73,2.44-6.17,3.63-10.29,3.63s-7.51-1.19-10.24-3.63c-2.73-2.44-4.13-5.77-4.13-10.09V12.83h7.71v21.63c0,4.62,2.88,7.26,6.66,7.26s6.71-2.69,6.71-7.26V12.83Z"/><path d="m297.98,47.64h-23.12V12.83h23.12v6.12h-15.42v8.55h13.38v6.12h-13.38v7.91h15.42v6.12Z"/><path class="cls-1" d="m306.23,39.53c2.64,0,4.72,1.94,4.72,4.38s-2.09,4.28-4.72,4.28-4.67-1.84-4.67-4.28,2.04-4.38,4.67-4.38Z"/></svg>