<?xml version="1.0" encoding="UTF-8"?><svg id="color_light" xmlns="http://www.w3.org/2000/svg" viewBox="0 0 320 64"><defs><style>.cls-1{fill:#70e266;}</style></defs><path class="cls-1" d="m14.64,39.53c2.63,0,4.72,1.94,4.72,4.38s-2.09,4.28-4.72,4.28-4.67-1.84-4.67-4.28,2.04-4.38,4.67-4.38Z"/><path d="m28.81,36.6c.95,3.18,3.03,4.77,6.32,4.77,2.98,0,5.22-1.14,5.22-3.58,0-1.54-.99-2.69-4.03-3.73l-3.78-1.29c-5.92-2.04-8.85-5.47-8.85-10.34,0-3.08,1.09-5.57,3.28-7.41,2.19-1.84,5.02-2.73,8.45-2.73,5.42,0,9.6,2.64,11.64,7.61l-6.27,3.13c-1.09-2.64-2.88-3.93-5.37-3.93s-4.23,1.04-4.23,3.23c0,1.64,1.24,2.88,3.73,3.73l3.68,1.29c6.12,1.89,9.2,5.32,9.25,10.29,0,3.43-1.24,6.02-3.68,7.81-2.49,1.84-5.42,2.73-8.8,2.73s-6.51-.94-9.05-2.78c-2.59-1.84-4.03-4.33-4.38-7.46l6.86-1.34Z"/><path d="m81.62,47.64h-7.71v-13.58h-13.23v13.58h-7.71V12.83h7.71v15.12h13.23v-15.12h7.71v34.81Z"/><path d="m86.69,30.23c0-4.92,1.79-9.15,5.32-12.68,3.53-3.53,7.76-5.27,12.78-5.27s9.25,1.74,12.78,5.27c3.53,3.53,5.27,7.76,5.27,12.68s-1.74,9.15-5.27,12.68c-3.53,3.53-7.81,5.27-12.78,5.27s-9.25-1.74-12.78-5.27c-3.53-3.53-5.32-7.76-5.32-12.68Zm7.61,0c0,3.13,1.04,5.77,3.08,7.81s4.48,3.08,7.41,3.08,5.37-1.04,7.41-3.08,3.03-4.67,3.03-7.81-1-5.77-3.03-7.81c-2.04-2.04-4.48-3.08-7.41-3.08s-5.37,1.04-7.41,3.08c-2.04,2.04-3.08,4.67-3.08,7.81Z"/><path d="m147.05,34.71c1.04,4.23,2.59,6.66,5.77,6.66,1.29,0,2.49-.5,3.53-1.49l2.74,5.32c-2.64,2.04-4.43,2.98-7.76,2.98-4.92,0-7.91-3.33-9.45-6.81-1.14-2.54-1.54-4.38-1.74-6.12h-4.62v12.38h-7.66V12.83h15.47c3.43,0,6.17,1.09,8.15,3.28,1.94,2.24,2.93,4.92,2.93,8.16,0,4.97-2.78,9-7.36,10.44Zm-11.54-5.62h6.81c2.74,0,4.38-1.94,4.38-4.87s-1.64-4.92-4.38-4.92h-6.81v9.8Z"/><path d="m159.03,12.83h27.3v6.46h-9.9v28.34h-7.61v-28.34h-9.8v-6.46Z"/><path d="m188.47,30.23c0-5.02,1.74-9.25,5.27-12.73,3.48-3.48,8.11-5.22,13.83-5.22,5.12,0,8.55,1.44,12.48,4.38l-3.18,5.87c-2.93-2.24-6.02-3.38-9.25-3.38-3.43,0-6.22,1.04-8.25,3.13-2.04,2.14-3.08,4.77-3.08,7.96s1.04,5.82,3.08,7.91c2.04,2.14,4.82,3.18,8.25,3.18,3.23,0,6.32-1.14,9.25-3.38l3.18,5.87c-3.93,2.93-7.36,4.38-12.48,4.38-5.72,0-10.34-1.74-13.83-5.22-3.53-3.48-5.27-7.71-5.27-12.73Z"/><path d="m244.85,12.83h7.71v21.63c0,4.33-1.39,7.66-4.13,10.09-2.74,2.44-6.17,3.63-10.29,3.63s-7.51-1.19-10.24-3.63c-2.73-2.44-4.13-5.77-4.13-10.09V12.83h7.71v21.63c0,4.62,2.88,7.26,6.66,7.26s6.71-2.69,6.71-7.26V12.83Z"/><path d="m256.49,12.83h27.3v6.46h-9.9v28.34h-7.61v-28.34h-9.8v-6.46Z"/><path d="m292.24,36.6c.95,3.18,3.03,4.77,6.32,4.77,2.98,0,5.22-1.14,5.22-3.58,0-1.54-.99-2.69-4.03-3.73l-3.78-1.29c-5.92-2.04-8.85-5.47-8.85-10.34,0-3.08,1.09-5.57,3.28-7.41,2.19-1.84,5.02-2.73,8.46-2.73,5.42,0,9.6,2.64,11.63,7.61l-6.27,3.13c-1.09-2.64-2.88-3.93-5.37-3.93s-4.23,1.04-4.23,3.23c0,1.64,1.24,2.88,3.73,3.73l3.68,1.29c6.12,1.89,9.2,5.32,9.25,10.29,0,3.43-1.24,6.02-3.68,7.81-2.49,1.84-5.42,2.73-8.8,2.73s-6.51-.94-9.05-2.78c-2.59-1.84-4.03-4.33-4.38-7.46l6.86-1.34Z"/></svg>